<svg xmlns="http://www.w3.org/2000/svg" width="980" height="560" viewBox="0 0 980 560">
<rect width="100%" height="100%" fill="#ffffff"/>
<text x="490.0" y="36" text-anchor="middle" font-family="Arial" font-size="24" font-weight="700">Средняя обращаемость издания по разделам фонда</text>
<text x="22" y="247.5" transform="rotate(-90 22 247.5)" text-anchor="middle" font-family="Arial" font-size="15">выдач на издание</text>
<line x1="90" y1="70" x2="90" y2="425" stroke="#334155" stroke-width="2"/>
<line x1="90" y1="425" x2="950" y2="425" stroke="#334155" stroke-width="2"/>
<line x1="90" y1="425.0" x2="950" y2="425.0" stroke="#e2e8f0"/>
<text x="78" y="430.0" text-anchor="end" font-family="Arial" font-size="13" fill="#475569">0</text>
<line x1="90" y1="336.2" x2="950" y2="336.2" stroke="#e2e8f0"/>
<text x="78" y="341.2" text-anchor="end" font-family="Arial" font-size="13" fill="#475569">4</text>
<line x1="90" y1="247.5" x2="950" y2="247.5" stroke="#e2e8f0"/>
<text x="78" y="252.5" text-anchor="end" font-family="Arial" font-size="13" fill="#475569">8</text>
<line x1="90" y1="158.8" x2="950" y2="158.8" stroke="#e2e8f0"/>
<text x="78" y="163.8" text-anchor="end" font-family="Arial" font-size="13" fill="#475569">12</text>
<line x1="90" y1="70.0" x2="950" y2="70.0" stroke="#e2e8f0"/>
<text x="78" y="75.0" text-anchor="end" font-family="Arial" font-size="13" fill="#475569">16</text>
<rect x="90.0" y="70.0" width="133.3" height="355.0" fill="#2563eb" rx="3"/>
<text x="156.7" y="62.0" text-anchor="middle" font-family="Arial" font-size="13" fill="#0f172a">15.68</text>
<text x="156.7" y="449" text-anchor="middle" font-family="Arial" font-size="12" fill="#334155">Учебная</text>
<text x="156.7" y="465" text-anchor="middle" font-family="Arial" font-size="12" fill="#334155">литература</text>
<rect x="235.3" y="108.7" width="133.3" height="316.3" fill="#0f766e" rx="3"/>
<text x="302.0" y="100.7" text-anchor="middle" font-family="Arial" font-size="13" fill="#0f172a">13.97</text>
<text x="302.0" y="449" text-anchor="middle" font-family="Arial" font-size="12" fill="#334155">Информационные</text>
<text x="302.0" y="465" text-anchor="middle" font-family="Arial" font-size="12" fill="#334155">технологии</text>
<rect x="380.7" y="150.4" width="133.3" height="274.6" fill="#7c3aed" rx="3"/>
<text x="447.3" y="142.4" text-anchor="middle" font-family="Arial" font-size="13" fill="#0f172a">12.13</text>
<text x="447.3" y="449" text-anchor="middle" font-family="Arial" font-size="12" fill="#334155">Экономика и</text>
<text x="447.3" y="465" text-anchor="middle" font-family="Arial" font-size="12" fill="#334155">менеджмент</text>
<rect x="526.0" y="208.1" width="133.3" height="216.9" fill="#c2410c" rx="3"/>
<text x="592.7" y="200.1" text-anchor="middle" font-family="Arial" font-size="13" fill="#0f172a">9.58</text>
<text x="592.7" y="449" text-anchor="middle" font-family="Arial" font-size="12" fill="#334155">Художественная</text>
<text x="592.7" y="465" text-anchor="middle" font-family="Arial" font-size="12" fill="#334155">литература</text>
<rect x="671.3" y="247.0" width="133.3" height="178.0" fill="#15803d" rx="3"/>
<text x="738.0" y="239.0" text-anchor="middle" font-family="Arial" font-size="13" fill="#0f172a">7.86</text>
<text x="738.0" y="449" text-anchor="middle" font-family="Arial" font-size="12" fill="#334155">Естественные</text>
<text x="738.0" y="465" text-anchor="middle" font-family="Arial" font-size="12" fill="#334155">науки</text>
<rect x="816.7" y="266.5" width="133.3" height="158.5" fill="#be123c" rx="3"/>
<text x="883.3" y="258.5" text-anchor="middle" font-family="Arial" font-size="13" fill="#0f172a">7</text>
<text x="883.3" y="449" text-anchor="middle" font-family="Arial" font-size="12" fill="#334155">Гуманитарные</text>
<text x="883.3" y="465" text-anchor="middle" font-family="Arial" font-size="12" fill="#334155">науки</text>
</svg>